<svg viewBox="0 0 193 27" fill="none" xmlns="http://www.w3.org/2000/svg">
<path d="M41.3442 18.3732L35.3827 18.1705L34.2217 18.1244L34.7239 17.3919C35.2713 16.7086 35.7053 15.9417 36.0092 15.1206C37.8759 16.0528 39.6605 17.1409 41.3442 18.3732Z" fill="#F97916"/>
<path d="M35.5019 21.5588C35.5008 21.63 35.4931 21.7009 35.4789 21.7707C35.4008 22.0655 35.2274 22.3261 34.9858 22.5121C34.7441 22.6981 34.4477 22.7989 34.1428 22.7989C33.8379 22.7989 33.5415 22.6981 33.2998 22.5121C33.0582 22.3261 32.8848 22.0655 32.8067 21.7707C32.8001 21.7002 32.8001 21.6293 32.8067 21.5588C32.8067 20.8308 33.4149 18.8774 34.1612 18.8774C34.9076 18.8774 35.5019 20.8308 35.5019 21.5588Z" fill="#F97916"/>
<path d="M35.1657 14.2098C35.115 14.3526 35.0644 14.4862 35.0137 14.6198C34.7091 15.442 34.2752 16.2103 33.7283 16.8957L33.2215 17.6282L33.1432 17.7434C31.5445 19.8627 28.7342 22.8112 23.0398 22.9264C14.3232 23.083 9.67925 25.2622 7.49088 26.7964C7.32042 26.9161 7.23289 26.9852 7.23289 26.9852C7.21941 26.9946 7.20344 26.9998 7.18702 27.0001C7.17059 27.0004 7.15445 26.9959 7.14063 26.987C7.12681 26.9781 7.11593 26.9653 7.10939 26.9502C7.10285 26.9352 7.10094 26.9185 7.10389 26.9023C7.95159 23.1568 10.0432 19.8719 13.3511 17.1122C14.962 15.7713 16.7455 14.6525 18.6539 13.7859C18.8698 13.7902 19.0834 13.7411 19.2758 13.6431C19.4263 13.5795 19.5801 13.5241 19.7365 13.4772C24.8038 11.9462 30.2435 12.2048 35.1427 14.2098H35.1657Z" fill="#F97916"/>
<path d="M35.7833 10.6148C35.7821 11.4684 35.6801 12.3189 35.4792 13.1487C30.3698 11.083 24.7073 10.8277 19.4327 12.4253H19.4097C19.3599 12.4491 19.3073 12.4661 19.253 12.476C19.0503 12.5405 18.843 12.6004 18.6357 12.6511L18.3132 12.7248C17.1888 12.9925 16.0368 13.127 14.8809 13.1256C14.6874 13.1256 14.4985 13.1256 14.3096 13.1256C12.2127 13.051 10.155 12.5363 8.26991 11.6148C6.38486 10.6933 4.71467 9.38565 3.36779 7.77678C3.06832 7.42203 2.7919 7.05347 2.5293 6.6803C1.82547 5.66214 1.2513 4.56023 0.820062 3.40004C0.68185 3.04069 0.562066 2.67212 0.46071 2.30356C0.247049 1.54896 0.0930049 0.778737 0 7.23806e-06H25.1087C26.6491 -0.00178571 28.1716 0.329541 29.572 0.971275C30.9724 1.61301 32.2174 2.54997 33.2218 3.71793C33.8987 4.41354 34.4325 5.23533 34.7928 6.13665C34.8573 6.27026 34.9172 6.40848 34.9771 6.54208C35.2535 7.21486 35.4604 7.91418 35.5944 8.6291V8.68899C35.69 9.20882 35.7393 9.73608 35.7418 10.2646L35.7833 10.6148Z" fill="#F97916"/>
<path d="M67.3648 14.7006C67.8005 15.344 68.0236 16.128 67.998 16.9259C68.007 17.6669 67.8226 18.3955 67.4661 19.0276C67.1027 19.6578 66.5795 20.1609 65.9592 20.4769C65.2528 20.8375 64.4792 21.0161 63.6987 20.9989H58V7.00112H62.6476C63.3682 6.9848 64.0829 7.14688 64.7371 7.47504C65.3083 7.76682 65.793 8.22595 66.1365 8.80064C66.4636 9.3812 66.6326 10.0503 66.624 10.7307C66.6331 11.2392 66.5379 11.7436 66.3454 12.2073C66.1556 12.6549 65.8741 13.0496 65.5223 13.3612C66.2527 13.5825 66.8985 14.0519 67.3648 14.7006ZM60.1148 8.99982V12.7774H62.4703C63.0191 12.8146 63.5609 12.6284 63.99 12.2554C64.1652 12.0821 64.3036 11.8694 64.3954 11.6322C64.4873 11.3949 64.5304 11.1389 64.5218 10.8818C64.5335 10.6242 64.4918 10.3671 64.3998 10.1294C64.3077 9.89164 64.1677 9.67933 63.99 9.50808C63.5549 9.15006 63.0152 8.97445 62.4703 9.01356L60.1148 8.99982ZM65.2563 18.4713C65.4634 18.2755 65.6277 18.0322 65.7372 17.7589C65.8468 17.4857 65.8988 17.1894 65.8895 16.8916C65.8972 16.592 65.8444 16.2942 65.7351 16.019C65.6257 15.7438 65.4624 15.4978 65.2563 15.2981C64.7687 14.8783 64.1556 14.668 63.5341 14.7074H60.1148V19.0551H63.5341C64.158 19.0887 64.7714 18.871 65.2563 18.4438V18.4713Z" fill="#F97916"/>
<path d="M74 7H82.7585V9.00098H76.1419V12.5904H81.125V14.5432H76.1419V18.9853H83V21H74V7Z" fill="#F97916"/>
<path d="M98.6142 18.7027H92.366L91.3787 21H89L95.1223 7H95.8777L102 21H99.6014L98.6142 18.7027ZM95.5331 11.1081L93.2008 16.804H97.8389L95.5331 11.1081Z" fill="#F97916"/>
<path d="M107 7H109.332V21H107V7ZM119 21H116.121L109.394 13.5535L115.484 7H118.343L112.322 13.5535L119 21Z" fill="#F97916"/>
<path d="M134.301 14.7005C134.781 15.344 135.026 16.1279 134.998 16.9259C135.008 17.6668 134.805 18.3955 134.413 19.0276C134.013 19.6578 133.437 20.1609 132.755 20.4769C131.978 20.8375 131.127 21.0161 130.269 20.9989H124V7.00094H129.112C129.905 6.98605 130.691 7.14807 131.411 7.47487C132.039 7.76664 132.572 8.22579 132.95 8.80048C133.31 9.38105 133.496 10.0502 133.486 10.7305C133.496 11.2391 133.392 11.7434 133.18 12.2072C132.971 12.6548 132.661 13.0495 132.274 13.3611C133.077 13.5841 133.787 14.0532 134.301 14.7005ZM126.326 8.99966V12.7773H128.903C129.507 12.8131 130.102 12.6272 130.575 12.2553C130.768 12.082 130.92 11.8693 131.021 11.632C131.122 11.3948 131.17 11.1388 131.16 10.8816C131.173 10.6241 131.127 10.367 131.026 10.1292C130.925 9.8915 130.771 9.67918 130.575 9.50793C130.098 9.14612 129.504 8.96571 128.903 8.99966H126.326ZM131.982 18.4713C132.21 18.2755 132.39 18.0321 132.511 17.7589C132.631 17.4856 132.689 17.1893 132.678 16.8915C132.687 16.5919 132.629 16.2942 132.509 16.019C132.388 15.7437 132.209 15.4977 131.982 15.298C131.446 14.8782 130.771 14.6679 130.087 14.7073H126.326V19.0551H130.087C130.774 19.0887 131.449 18.871 131.982 18.4438V18.4713Z" fill="#F97916"/>
<path d="M143.721 20.0763C142.597 19.4885 141.655 18.6158 140.995 17.5501C140.331 16.4802 139.987 15.2507 140 14C139.985 12.7473 140.335 11.5161 141.009 10.4499C141.671 9.38647 142.612 8.51445 143.735 7.92367C144.893 7.31733 146.186 7 147.5 7C148.814 7 150.107 7.31733 151.265 7.92367C152.39 8.5118 153.331 9.38442 153.991 10.4499C154.651 11.5221 155 12.7493 155 14C155 15.2507 154.651 16.4779 153.991 17.5501C153.329 18.6141 152.388 19.4863 151.265 20.0763C150.106 20.6827 148.812 21 147.497 21C146.182 21 144.887 20.6827 143.728 20.0763H143.721ZM150.134 18.3611C150.906 17.9407 151.543 17.3193 151.974 16.5662C152.432 15.7784 152.667 14.8858 152.655 13.9801C152.664 13.0874 152.428 12.2086 151.974 11.4339C151.543 10.6807 150.906 10.0593 150.134 9.63888C149.328 9.21121 148.425 8.98717 147.507 8.98717C146.589 8.98717 145.686 9.21121 144.88 9.63888C144.112 10.0567 143.478 10.6732 143.047 11.4206C142.596 12.2017 142.361 13.0837 142.365 13.9801C142.36 14.885 142.594 15.776 143.047 16.5662C143.476 17.3184 144.11 17.9397 144.88 18.3611C145.688 18.7842 146.59 19.0056 147.507 19.0056C148.424 19.0056 149.326 18.7842 150.134 18.3611Z" fill="#F97916"/>
<path d="M164.729 20.0764C163.604 19.4875 162.661 18.6151 162 17.5503C161.345 16.476 161 15.2498 161 14.0005C161 12.7511 161.345 11.5249 162 10.4506C162.664 9.38782 163.606 8.51603 164.729 7.92451C165.881 7.3042 167.179 6.98582 168.495 7.00048C169.813 6.98977 171.112 7.30787 172.268 7.92451C173.391 8.51629 174.333 9.38802 174.997 10.4506C175.653 11.5242 176 12.7507 176 14.0005C176 15.2502 175.653 16.4768 174.997 17.5503C174.331 18.6115 173.389 19.4828 172.268 20.0764C171.106 20.6827 169.809 21 168.492 21C167.174 21 165.877 20.6827 164.715 20.0764H164.729ZM171.156 18.3613C171.926 17.9371 172.562 17.3166 172.998 16.5664C173.453 15.7775 173.689 14.8858 173.68 13.9805C173.685 13.0882 173.45 12.2102 172.998 11.4345C172.562 10.6843 171.926 10.0638 171.156 9.6396C170.347 9.21196 169.442 8.98796 168.522 8.98796C167.602 8.98796 166.697 9.21196 165.889 9.6396C165.123 10.0583 164.49 10.6748 164.06 11.4212C163.606 12.201 163.371 13.0838 163.378 13.9805C163.369 14.8859 163.604 15.7776 164.06 16.5664C164.488 17.3177 165.121 17.939 165.889 18.3613C166.699 18.7843 167.603 19.0057 168.522 19.0057C169.441 19.0057 170.346 18.7843 171.156 18.3613Z" fill="#F97916"/>
<path d="M182 7H184.138V21H182V7ZM193 21H190.361L184.214 13.5535L189.796 7H192.416L186.891 13.5535L193 21Z" fill="#F97916"/>
</svg>
